<?xml version="1.0" encoding="UTF-8"?>
<svg id="Layer_1" data-name="Layer 1" xmlns="http://www.w3.org/2000/svg" version="1.1" viewBox="0 0 2000 2000">
  <defs>
    <style>
      .cls-1 {
        fill: #ffab00;
      }

      .cls-1, .cls-2, .cls-3 {
        stroke-width: 0px;
      }

      .cls-2 {
        fill: #004899;
      }

      .cls-3 {
        fill: #fff;
      }
    </style>
  </defs>
  <path class="cls-3" d="M2000.73,1000.73c0,552.68-448.05,1000.73-1000.73,1000.73S-.73,1553.41-.73,1000.73,447.31,0,1000,0s1000.73,448.04,1000.73,1000.73"/>
  <path class="cls-2" d="M999.98,0C447.31,0-.74,448.04-.74,1000.72s448.04,1000.74,1000.72,1000.74,1000.75-448.03,1000.75-1000.74S1552.69,0,999.98,0M1000,1962.99c-531.43,0-962.24-430.81-962.24-962.27S468.57,38.49,1000,38.49s962.26,430.81,962.26,962.23-430.81,962.27-962.26,962.27"/>
  <path class="cls-2" d="M443.89,457.99l.19-.65-.19.65Z"/>
  <path class="cls-2" d="M485.79,417.11l.52-.45-.52.45Z"/>
  <path class="cls-2" d="M701.13,282.82l.62-.28-.62.28Z"/>
  <path class="cls-2" d="M1590.29,492.75l.5-.45-.5.45Z"/>
  <path class="cls-2" d="M1394.4,1051.56s8.3,11.83,18.52,11.83,18.53-11.83,18.53-11.83c0,0-8.3-11.8-18.53-11.8s-18.52,11.8-18.52,11.8"/>
  <path class="cls-2" d="M1896.46,883.66c-12.3-6.59-31.22-15.33-58.32-26.71-27.84-11.63-85.49-30.02-145.21-46-83.27-304.66-361.85-528.68-692.93-528.68-370.83,0-675.92,280.99-714.3,641.64-36.48,5.45-71.39,9.66-101.67,12.84-60.01,6.29-101.68,8.53-101.77,8.56-2.21.12-4.01,1.81-4.26,4.02-.01.16-.03.39-.03.73-.16,3.32,2.15,17.08,24.89,28.7,22.69,11.72,65.58,22.42,148.81,22.47,9.36,0,19.43-.19,29.84-.47,0,396.8,321.68,718.47,718.48,718.47s718.47-321.67,718.47-718.47c0-45.13-4.38-89.19-12.35-132,73.9,16.29,166.8,37.4,196.78,37.46,3.21-.01,5.77-.21,7.92-.83,1.94-.48,4.81-2.11,4.88-5.45-1.14-6.56-7.08-9.17-19.25-16.26M1902.9,899.4c-46.89.1-262.63-55.89-293.31-56.04-47.87.3-155.61,59.48-211.54,95.82-16.35,10.68-32.96,20.23-49.16,28.74,4.18.22,8.3.58,12.38,1.08,0-.01.01-.01.01-.01,33.94,4.14,64.15,17.23,88.61,35.19,31.49,23.4,63.93,52.16,83.49,56.01.92.06,1.97.13,3.07.24h.12c27.77,2.63,107.38,22.29,104.87,69.38,0,0-55.4-16.69-121.8-5.31-26.13,5.54-64.23,9.14-122.07,27.5-54.67,17.23-197.35,71.31-308.99,71.38-84.85-.1-256.42-48.93-355.38-57.33-5.91-.49-11.75-.74-17.57-.74-75.4-.09-140.07,39.47-172.44,39.95-29.18,0-80.33-5.09-130.46-42.23-38.08-28.43-66.35-70.1-66.68-100.96-.04-10.33,3.53-19.89,11.59-26.18,5.7-4.33,13.65-5.22,24.14-5.3,38.81.06,115.78,16.89,206.99,16.87,54.22,0,113.3-5.94,171.86-24.84,13.59-4.36,54.51-13.95,80.85-20.52,6.97,4.75,14.32,9.9,22.54,15.57.77.55,1.68.82,2.57.82,1.42,0,2.85-.68,3.72-1.94,1.42-2.06.91-4.88-1.14-6.29-50.66-35.38-74.79-54.97-159.65-54.73-54.03,0-133.07,7.49-261.09,22.84-83.1,9.96-147.26,13.8-196.75,13.8-82.46.04-124.16-10.77-144.64-21.46-12.6-6.65-17.21-12.84-18.94-16.66,29.74-1.87,177.8-12.17,308.7-41.15,148.5-33.02,381.09-125.92,489.45-125.72,40.32-.31,110.35,41.36,179.77,88.01,69.72,46.63,139.36,97.82,183.78,116.46,2.3.96,4.96-.12,5.92-2.42s-.12-4.96-2.42-5.92c-25.44-10.61-60.81-33.29-100.06-59.79,53.88-25.45,240.54-137.58,374.17-137.49,63.63-.12,251.61,53.39,308.12,77.21,26.99,11.32,45.8,20,57.74,26.41,5.95,3.19,10.21,5.83,12.79,7.82.79.61,1.41,1.16,1.9,1.6-1.19.24-2.89.34-5.05.34"/>
  <path class="cls-1" d="M1519.63,1124.49c66.42-11.38,121.82,5.33,121.82,5.33,2.6-49.03-83.82-68.34-108.06-69.63,0,0,12.5,26.04-55.01,31.19,0,0-31.52-.82-44.45,10.82,0,0,62.18-4.72,83.99,19.53l1.71,2.76Z"/>
  <g>
    <path class="cls-2" d="M634.08,1826.59l26.65,9.74,17.65-22.51,39.6,14.48-1.05,28.59,26.65,9.74,2.36-127.52-31.38-11.47-80.5,98.95ZM691.98,1796.48l28.48-36.32h.01s-1.69,46.12-1.69,46.12l-26.81-9.8Z"/>
    <polygon class="cls-2" points="826.62 1761.78 800.71 1756.3 775.77 1874.27 851.73 1890.33 856.29 1868.75 806.25 1858.17 826.62 1761.78"/>
    <path class="cls-2" d="M972.62,1842.52c-3.7-2.58-7.79-4.19-12.16-4.8v-.07c4.08-.67,7.83-1.99,11.15-3.93,3.47-2.04,6.32-4.81,8.48-8.25,2.16-3.44,3.43-7.59,3.78-12.32.44-6.06-.68-11.61-3.34-16.5-2.66-4.89-6.92-8.93-12.66-12-5.71-3.05-13.07-4.92-21.87-5.56l-48.27-3.52-8.77,120.25,51.47,3.75c1.88.14,3.7.21,5.47.21,6.68,0,12.59-.97,17.6-2.91,6.38-2.46,11.4-6.13,14.93-10.92,3.53-4.79,5.56-10.46,6.03-16.87.43-5.93-.47-11.23-2.68-15.73-2.21-4.5-5.29-8.15-9.16-10.85ZM956.9,1815.39c-.22,2.99-1.16,5.53-2.8,7.55-1.65,2.03-3.84,3.56-6.5,4.54-2.69.99-5.74,1.36-9.08,1.12l-18.02-1.31,2.06-28.2,18.49,1.35c5.4.39,9.51,1.98,12.24,4.71,2.74,2.75,3.92,6.1,3.62,10.24ZM919.17,1845.58l20.46,1.49c3.91.29,7.28,1.24,10,2.83,2.7,1.58,4.76,3.66,6.1,6.17,1.34,2.52,1.9,5.39,1.67,8.55-.32,4.34-2.07,7.6-5.35,9.96-3.27,2.36-8.39,3.3-15.22,2.8l-19.88-1.45,2.21-30.35Z"/>
    <polygon class="cls-2" points="1046.13 1779.69 1019.66 1780.78 1024.6 1900.62 1024.63 1901.25 1051.1 1900.16 1046.16 1780.32 1046.13 1779.69"/>
    <path class="cls-2" d="M1180.08,1789.18c-6.36-8.28-14.24-14.2-23.42-17.6-9.17-3.4-19.12-4.25-29.57-2.55-10.53,1.72-19.71,5.7-27.31,11.83-7.6,6.14-13.18,14.25-16.56,24.11-3.38,9.85-4.03,21.38-1.93,34.26,2.09,12.85,6.37,23.55,12.7,31.82,6.34,8.28,14.2,14.21,23.37,17.63,6.1,2.28,12.58,3.43,19.33,3.43,3.37,0,6.82-.29,10.33-.86,10.45-1.7,19.61-5.68,27.22-11.81,7.62-6.14,13.22-14.25,16.62-24.12,3.4-9.85,4.06-21.38,1.96-34.27-2.1-12.88-6.39-23.61-12.74-31.87ZM1127.1,1866.17c-4.83-2.16-8.96-5.88-12.28-11.06-3.34-5.21-5.71-12-7.05-20.2-1.34-8.19-1.25-15.39.27-21.39,1.5-5.96,4.24-10.8,8.13-14.39,3.9-3.58,8.84-5.88,14.71-6.84,1.79-.29,3.55-.44,5.25-.44,3.88,0,7.51.75,10.86,2.25,4.83,2.16,8.96,5.88,12.28,11.06,3.34,5.21,5.71,12.01,7.05,20.2,1.34,8.19,1.25,15.39-.27,21.39-1.5,5.96-4.24,10.81-8.13,14.39-3.89,3.58-8.84,5.88-14.71,6.84-5.87.96-11.29.35-16.12-1.81Z"/>
    <polygon class="cls-2" points="1303.35 1721.78 1278.42 1730.37 1302.87 1801.31 1302.79 1801.34 1229.65 1747.18 1207.81 1754.7 1246.89 1868.1 1247.1 1868.7 1272.14 1860.07 1247.71 1789.19 1320.86 1842.99 1321.13 1843.18 1342.64 1835.77 1303.56 1722.37 1303.35 1721.78"/>
    <path class="cls-2" d="M354.26,504.27c-4.93-3.34-9.96-5.19-14.97-5.53-5-.33-9.7.52-13.97,2.52-4.08,1.92-7.52,4.66-10.23,8.15l-.05-.04c1.46-3.87,2.18-7.77,2.15-11.62-.03-4.02-1.01-7.88-2.92-11.47-1.9-3.59-4.86-6.76-8.79-9.42-5.03-3.4-10.4-5.2-15.97-5.34-5.56-.14-11.19,1.54-16.71,4.99-5.49,3.43-10.79,8.88-15.73,16.18l-27.13,40.08,99.33,67.23.52.35,28.93-42.74c5.04-7.44,8.12-14.62,9.17-21.34,1.05-6.75.38-12.94-2.01-18.39-2.39-5.45-6.29-10.04-11.61-13.64ZM301.31,549.12l11.5-16.99c2.2-3.25,4.7-5.69,7.44-7.26,2.72-1.56,5.54-2.31,8.39-2.21,2.85.09,5.62,1.04,8.24,2.81,3.55,2.4,5.56,5.64,5.96,9.6.41,4.01-1.33,8.92-5.16,14.59l-11.17,16.51-25.2-17.06ZM262.72,522.99l10.39-15.35c3.03-4.48,6.46-7.26,10.19-8.26,3.7-.99,7.29-.33,10.68,1.97,2.48,1.68,4.22,3.77,5.15,6.2.94,2.45,1.17,5.1.69,7.9-.48,2.82-1.68,5.65-3.56,8.43l-10.13,14.96-23.42-15.85Z"/>
    <path class="cls-2" d="M410.87,420.54c2.18-6.9,2.33-13.67.43-20.13-1.89-6.45-5.84-12.47-11.72-17.89-5.85-5.39-12.19-8.89-18.85-10.4-6.67-1.51-13.48-.98-20.25,1.58-6.75,2.55-13.28,7.22-19.43,13.89l-32.33,35.08,88.67,81.71,17.95-19.48-31.1-28.66,11.79-12.8,46.42,12.04,19.85-21.54-51.6-12.89c.06-.17.11-.34.17-.51ZM342.77,418.01l11.1-12.04c3.21-3.49,6.43-5.94,9.54-7.3,3.07-1.33,6.11-1.68,9.03-1.03,2.94.66,5.86,2.31,8.68,4.9,2.79,2.57,4.63,5.3,5.46,8.12.83,2.8.68,5.79-.45,8.88-1.15,3.14-3.36,6.49-6.55,9.96l-11.18,12.13-25.63-23.62Z"/>
    <polygon class="cls-2" points="403.21 326.69 481.51 417.55 481.92 418.03 501.99 400.74 423.28 309.4 403.21 326.69"/>
    <path class="cls-2" d="M582.53,282.08l-8.76-12.98-42.43,28.63,11.33,16.79,21.23-14.32c2.3,3.73,3.59,7.52,3.86,11.29.29,4.15-.66,8.2-2.81,12.03-2.17,3.86-5.61,7.39-10.24,10.52-5.09,3.43-10.4,5.2-15.78,5.26-5.34.06-10.76-1.61-15.98-4.94-5.25-3.35-10.24-8.5-14.82-15.28-4.58-6.78-7.45-13.32-8.53-19.41-1.07-6.07-.57-11.65,1.49-16.6,2.06-4.95,5.61-9.14,10.53-12.46,2.64-1.78,5.31-3.1,7.93-3.91,2.61-.81,5.22-1.18,7.75-1.09,2.53.08,5.01.62,7.38,1.58,2.38.97,4.7,2.39,6.9,4.23l.36.3,22.24-15.01-.48-.54c-4.01-4.48-8.68-8.01-13.86-10.5-5.18-2.49-10.74-3.97-16.55-4.41-5.79-.43-11.76.18-17.73,1.82-5.97,1.64-11.85,4.4-17.48,8.2-6.57,4.44-11.98,9.78-16.06,15.88-4.09,6.11-6.81,12.9-8.08,20.18-1.27,7.28-.94,14.98.98,22.9,1.92,7.9,5.65,15.99,11.07,24.03,7.06,10.47,15.24,18.29,24.32,23.26,8.07,4.42,16.56,6.65,25.26,6.65,1.1,0,2.2-.04,3.31-.11,9.85-.63,19.58-4.15,28.9-10.44,8.35-5.63,14.72-12.43,18.92-20.19,4.21-7.78,6.07-16.18,5.53-24.96-.54-8.78-3.8-17.67-9.7-26.41Z"/>
    <polygon class="cls-2" points="637.1 254.69 682.63 234.15 702.9 279.08 726.99 268.21 677.4 158.3 653.31 169.17 673.56 214.04 628.03 234.58 607.78 189.71 583.64 200.6 633.22 310.51 657.37 299.62 637.1 254.69"/>
    <polygon class="cls-2" points="803.14 245.81 776.7 150.91 811.88 141.1 805.96 119.85 710.35 146.5 716.27 167.75 751.46 157.94 777.91 252.84 803.14 245.81"/>
    <path class="cls-2" d="M900.05,228.82c10.5-1.35,19.79-5.01,27.61-10.88,7.83-5.88,13.69-13.8,17.43-23.55,3.73-9.73,4.78-21.23,3.12-34.18-1.66-12.95-5.58-23.81-11.65-32.29-6.08-8.49-13.75-14.67-22.81-18.38-9.05-3.71-18.96-4.9-29.46-3.55-10.58,1.36-19.9,5.02-27.7,10.89-7.81,5.88-13.65,13.8-17.37,23.54-3.71,9.73-4.75,21.23-3.09,34.18,1.66,12.91,5.57,23.75,11.61,32.23,6.06,8.49,13.72,14.69,22.76,18.42,6.63,2.74,13.75,4.11,21.26,4.11,2.72,0,5.48-.18,8.3-.54ZM869.1,191.61c-3.16-5.32-5.3-12.19-6.36-20.43-1.06-8.23-.72-15.42.99-21.37,1.7-5.91,4.6-10.65,8.62-14.1,4.01-3.45,9.04-5.58,14.93-6.34,1.44-.19,2.85-.28,4.23-.28,4.26,0,8.22.88,11.81,2.63,4.75,2.32,8.76,6.18,11.9,11.47,3.16,5.32,5.3,12.2,6.36,20.43,1.06,8.23.72,15.43-.99,21.37-1.71,5.91-4.6,10.66-8.62,14.1-4.01,3.45-9.03,5.58-14.93,6.33-5.9.76-11.3-.04-16.05-2.36-4.75-2.32-8.76-6.18-11.9-11.47Z"/>
    <polygon class="cls-2" points="1054.17 101.53 1051.7 176.53 1051.61 176.53 1002.61 99.84 979.52 99.08 975.56 219.59 1002.03 220.46 1004.49 145.53 1053.64 221.89 1053.82 222.16 1076.56 222.91 1080.52 102.4 1054.17 101.53"/>
    <path class="cls-2" d="M1213.63,251.25c5.37-.11,10.59-1.19,15.49-3.2l4.73,9.36,26.58,7.19-12.35-25.38c.7-.56,1.39-1.14,2.07-1.75,3.9-3.47,7.44-7.89,10.52-13.15,3.08-5.25,5.61-11.5,7.52-18.57l.16-.61-21.07-5.7-.17.61c-1.52,5.63-3.9,10.57-7.06,14.68-.79,1.03-1.61,2.01-2.47,2.94l-12.39-25.46,7.42-2.79c5.83-2.2,10.77-5.2,14.69-8.92,3.94-3.74,6.69-8.44,8.19-13.97,1.35-5,1.36-9.99.03-14.84-1.33-4.85-3.97-9.21-7.84-12.98-3.87-3.76-8.99-6.53-15.21-8.21-6.37-1.72-12.4-1.91-17.91-.57-5.52,1.35-10.28,3.97-14.16,7.79-3.88,3.82-6.62,8.63-8.15,14.3-1.36,5.02-1.61,10.01-.75,14.83.85,4.78,2.29,9.52,4.27,14.08.04.09.08.18.12.27-4.61,1.66-8.82,3.46-12.53,5.38-4.07,2.1-7.54,4.7-10.32,7.74-2.8,3.06-4.84,6.93-6.08,11.51-1.66,6.13-1.58,12.18.21,18,1.8,5.82,5.28,11.03,10.34,15.5,5.05,4.46,11.68,7.81,19.68,9.98,5.17,1.4,10.67,2.04,16.41,1.94ZM1216.88,174.3c-1.31-3.03-2.29-5.87-2.91-8.45-.65-2.72-.67-5.26-.05-7.55.5-1.83,1.39-3.4,2.65-4.66,1.27-1.26,2.82-2.16,4.63-2.68.85-.24,1.74-.36,2.66-.36,1.04,0,2.13.15,3.26.46,3.19.83,5.43,2.4,6.64,4.67,1.22,2.29,1.56,4.52.98,6.64-.61,2.27-1.83,4.22-3.63,5.81-1.83,1.61-4.42,2.95-7.71,3.98l-6.52,2.14ZM1203.93,229.18c-3.23-.87-5.9-2.25-7.95-4.1-2.04-1.84-3.44-3.99-4.16-6.41-.72-2.41-.73-4.96-.03-7.57.56-2.08,1.9-4.11,3.98-6.03,2.1-1.94,5.06-3.65,8.77-5.08l.26-.1,14.67,29.05c-1.01.28-2.03.51-3.06.69-4.35.77-8.55.61-12.49-.45Z"/>
    <polygon class="cls-2" points="1455.04 223.77 1431.36 266.93 1387.57 242.9 1411.26 199.74 1388.03 187 1330.03 292.7 1353.25 305.45 1376.96 262.24 1420.75 286.27 1397.04 329.48 1420.21 342.19 1478.21 236.49 1455.04 223.77"/>
    <path class="cls-2" d="M1578.68,344.71c1.81-10.28.86-20.09-2.83-29.16-3.68-9.06-9.76-16.98-18.08-23.54-8.37-6.61-17.51-10.7-27.16-12.17-9.66-1.47-19.41-.1-28.97,4.06-9.55,4.16-18.49,11.46-26.58,21.71-8.07,10.22-13.08,20.6-14.9,30.85-1.83,10.27-.9,20.07,2.76,29.14,3.66,9.06,9.75,17.01,18.13,23.62,8.31,6.56,17.42,10.64,27.09,12.11,2.53.39,5.07.58,7.61.58,7.16,0,14.34-1.54,21.41-4.6,9.56-4.14,18.51-11.44,26.6-21.69,8.09-10.25,13.11-20.65,14.92-30.91ZM1552.85,340.16c-1.59,5.98-5,12.32-10.15,18.84-5.14,6.52-10.52,11.31-15.97,14.24-5.42,2.92-10.84,4.16-16.1,3.71-5.27-.46-10.31-2.55-14.97-6.24-4.67-3.68-7.88-8.1-9.54-13.12-1.67-5.02-1.71-10.58-.13-16.53,1.59-5.98,5-12.32,10.15-18.84,5.14-6.52,10.52-11.31,15.96-14.24,4.69-2.53,9.38-3.8,13.98-3.8.71,0,1.42.03,2.12.09,5.27.46,10.31,2.55,14.97,6.24,4.66,3.68,7.88,8.09,9.54,13.11,1.67,5.02,1.71,10.58.13,16.53Z"/>
    <polygon class="cls-2" points="1676.66 406.51 1590.71 447.33 1590.59 447.19 1637.1 364.21 1617.04 342.76 1557.62 455.12 1557.41 455.52 1580.23 479.92 1696.68 427.92 1676.66 406.51"/>
    <polygon class="cls-2" points="1744.82 534.12 1762.95 521.56 1716.43 454.44 1617.34 523.13 1663.99 590.44 1682.12 577.87 1650.56 532.33 1672.93 516.82 1702.01 558.77 1720.14 546.2 1691.06 504.26 1713.39 488.78 1744.82 534.12"/>
  </g>
</svg>