<?xml version="1.0" encoding="UTF-8"?>
<svg id="Layer_1" xmlns="http://www.w3.org/2000/svg" version="1.1" viewBox="0 0 161.921 140.285">
  <!-- Generator: Adobe Illustrator 29.5.1, SVG Export Plug-In . SVG Version: 2.1.0 Build 141)  -->
  <polygon points="40.48 0 0 70.145 40.48 140.285 121.442 140.285 161.921 70.145 121.442 0 40.48 0" fill="#231f20"/>
  <polygon points="48.264 126.794 15.569 70.146 48.264 13.49 113.658 13.49 146.354 70.146 113.658 126.794 48.264 126.794" fill="#fdb913"/>
  <path d="M48.946,125.613h64.032l32.015-55.467L112.978,14.671H48.947l-32.016,55.475,32.015,55.467ZM114.339,127.973H47.583L14.206,70.146l.34-.59L47.583,12.311h66.758l.338.59,33.038,57.245-33.378,57.827Z" fill="#fff"/>
  <polygon points="71.58 43.597 90.281 43.597 100.277 18.523 127.338 73.488 98.077 90.783 88.69 121.578 73.234 121.578 63.881 90.735 34.588 73.488 61.608 18.523 71.58 43.597" fill="#231f20"/>
  <path d="M75.405,78.713l-13.798-14.795v14.795h13.798ZM100.277,63.918v14.795h-13.825l13.825-14.795Z" fill="#fff"/>
</svg>